<svg width="31" height="31" viewBox="0 0 31 31" fill="none" xmlns="http://www.w3.org/2000/svg">
<path fill-rule="evenodd" clip-rule="evenodd" d="M30.817 10.695C30.416 9.51 29.453 8.763 28.603 8.104C28.149 7.752 27.72 7.419 27.472 7.093C27.2198 6.76201 27.0212 6.26703 26.8109 5.74282L26.809 5.738L26.8086 5.73706C26.4177 4.76429 25.9747 3.66177 24.948 2.946C23.943 2.244 22.732 2.179 21.664 2.123C21.064 2.091 20.496 2.06 20.064 1.925C19.669 1.802 19.211 1.517 18.728 1.215C17.816 0.645 16.782 0 15.499 0C14.215 0 13.183 0.645 12.271 1.215C11.787 1.517 11.33 1.802 10.934 1.926C10.503 2.06 9.935 2.091 9.334 2.123L9.33115 2.12315C8.26384 2.18011 7.0551 2.24463 6.05 2.946C5.02497 3.66133 4.58183 4.76292 4.1911 5.73426L4.19 5.737C3.979 6.263 3.779 6.761 3.525 7.094C3.278 7.421 2.849 7.754 2.394 8.106L2.38713 8.11134C1.54081 8.76903 0.58192 9.5142 0.183 10.695C-0.206951 11.8459 0.105921 12.9817 0.381895 13.9836L0.382 13.984C0.536 14.542 0.681 15.069 0.681 15.5C0.681 15.9317 0.536222 16.4572 0.382353 17.0157L0.382 17.017L0.381572 17.0186C0.105677 18.0202 -0.206798 19.1546 0.183 20.306C0.584 21.49 1.546 22.236 2.395 22.894C2.849 23.246 3.278 23.579 3.526 23.905C3.77705 24.2354 3.97493 24.7274 4.18511 25.2498L4.19 25.262C4.581 26.235 5.025 27.338 6.052 28.055C7.057 28.756 8.266 28.82 9.334 28.876C9.935 28.908 10.503 28.939 10.934 29.073C11.3225 29.1937 11.7688 29.4713 12.2426 29.766L12.27 29.783C13.182 30.353 14.216 30.998 15.499 30.998C16.783 30.998 17.817 30.353 18.729 29.783C19.213 29.481 19.669 29.197 20.065 29.073C20.496 28.939 21.064 28.908 21.665 28.876L21.6676 28.8759C22.735 28.8189 23.9428 28.7544 24.948 28.054C25.9744 27.3375 26.4174 26.2354 26.8093 25.2608L26.81 25.259C27.021 24.733 27.221 24.236 27.472 23.905C27.7189 23.5795 28.1451 23.249 28.5968 22.8988L28.603 22.894L28.6096 22.8889C29.457 22.2311 30.417 21.4859 30.817 20.305C31.2061 19.1557 30.8945 18.0234 30.619 17.0221L30.617 17.015C30.462 16.457 30.317 15.93 30.317 15.498C30.317 15.067 30.462 14.539 30.617 13.982C30.893 12.981 31.206 11.845 30.817 10.695ZM28.127 17.703L28.1279 17.7062C28.3136 18.3802 28.5058 19.0776 28.37 19.476C28.2192 19.9233 27.6119 20.3945 27.0238 20.8509L27.021 20.853L27.016 20.8569C26.4515 21.2947 25.8686 21.7468 25.415 22.344C24.954 22.952 24.679 23.636 24.414 24.296L24.4131 24.2983C24.1314 24.9984 23.8656 25.6593 23.47 25.935C23.0724 26.2133 22.3309 26.2535 21.5432 26.2962L21.529 26.297L21.5258 26.2972C20.7928 26.3361 20.0359 26.3763 19.299 26.607C18.5867 26.8285 17.9669 27.2152 17.3672 27.5894L17.3672 27.5894L17.363 27.592C16.685 28.016 16.045 28.415 15.501 28.415C14.9587 28.415 14.321 28.0175 13.6463 27.5969L13.64 27.593L13.6328 27.5885C13.034 27.2149 12.4142 26.8281 11.704 26.607C10.965 26.377 10.207 26.336 9.473 26.297C8.68 26.255 7.932 26.215 7.533 25.936C7.137 25.659 6.871 24.998 6.589 24.297L6.5851 24.2873C6.32031 23.6303 6.04574 22.949 5.585 22.344C5.132 21.746 4.547 21.292 3.98 20.853C3.392 20.397 2.783 19.924 2.632 19.477C2.49637 19.0781 2.68795 18.3818 2.87349 17.7075L2.875 17.702L2.8789 17.6878C3.06095 17.0253 3.267 16.2755 3.267 15.5C3.267 14.719 3.059 13.964 2.875 13.298L2.87121 13.2842C2.68738 12.6135 2.49792 11.9223 2.632 11.524C2.783 11.077 3.391 10.605 3.98 10.149L3.9957 10.1368C4.55684 9.7006 5.13718 9.24947 5.585 8.657C6.047 8.048 6.323 7.363 6.589 6.702L6.59281 6.69255C6.87339 5.99606 7.13778 5.33976 7.531 5.065C7.93105 4.78566 8.67745 4.74519 9.46836 4.70231L9.474 4.702C10.207 4.663 10.965 4.622 11.703 4.393C12.4121 4.17251 13.0305 3.7873 13.6287 3.41468L13.641 3.407C14.318 2.983 14.958 2.584 15.501 2.584C16.0445 2.584 16.6828 2.98222 17.36 3.40476L17.362 3.406L17.3661 3.40853C17.9668 3.78375 18.5876 4.17149 19.3 4.391C20.039 4.621 20.796 4.662 21.529 4.701C22.322 4.743 23.071 4.783 23.472 5.064C23.8638 5.33914 24.1283 5.99589 24.4094 6.69345L24.412 6.7L24.4144 6.70598L24.4144 6.706C24.6797 7.36515 24.9544 8.04784 25.415 8.654C25.8676 9.24913 26.4503 9.70216 27.0147 10.1409L27.02 10.145C27.608 10.601 28.217 11.074 28.369 11.522C28.5035 11.9177 28.3151 12.6051 28.132 13.2733L28.126 13.295L28.1242 13.3017C27.9406 13.967 27.733 14.7196 27.733 15.499C27.734 16.2784 27.9421 17.0328 28.1258 17.6988L28.1259 17.6988L28.127 17.703ZM21.311 15.499C21.3094 17.04 20.6966 18.5173 19.607 19.607C18.5173 20.6966 17.04 21.3094 15.499 21.311C13.958 21.3094 12.4807 20.6966 11.391 19.607C10.3014 18.5173 9.68859 17.04 9.687 15.499C9.68859 13.958 10.3014 12.4807 11.391 11.391C12.4807 10.3014 13.958 9.68859 15.499 9.687H16.791V7.104H15.499C10.87 7.104 7.104 10.87 7.104 15.5C7.104 20.13 10.87 23.896 15.499 23.896C20.128 23.896 23.895 20.13 23.895 15.5V14.208H21.312V15.499H21.311ZM12.382 14.207L14.208 12.381L15.501 13.672L20.667 8.506L22.493 10.332L15.5 17.325L12.382 14.207Z" fill="#4074F8"/>
</svg>
