<svg width="31" height="31" viewBox="0 0 31 31" fill="none" xmlns="http://www.w3.org/2000/svg">
<path d="M29.944 7.479H24.842C26.161 5.686 25.976 3.289 24.47 1.695C21.585 -1.357 17.16 0.0659952 15.5 3.225C13.773 -0.0620048 9.274 -1.208 6.67 1.547C4.829 3.495 4.962 5.853 6.158 7.479H1.056C0.473 7.479 0 7.927 0 8.479V14.809C0 15.361 0.473 15.809 1.056 15.809H2.589V30C2.589 30.553 3.062 31 3.644 31H27.357C27.94 31 28.412 30.552 28.412 30V15.81H29.945C30.528 15.81 31.001 15.362 31.001 14.81V8.47999C31 7.92699 30.527 7.479 29.944 7.479V7.479ZM16.982 5.391C17.367 2.54599 20.857 0.871995 22.758 2.882L22.898 3.03C24.52 4.746 23.228 7.479 20.8 7.479H16.699L16.982 5.391V5.391ZM18.536 17.32C15.745 16.025 15.827 16.025 15.5 16.025C15.174 16.025 15.256 16.025 12.464 17.32V9.47999H18.535V17.32H18.536ZM8.102 3.031L8.242 2.883C10.15 0.864995 13.634 2.554 14.018 5.392L14.301 7.48H10.2C7.768 7.479 6.483 4.743 8.102 3.031V3.031ZM2.111 9.47999H10.353V13.809H2.111V9.47999ZM4.699 15.809H10.353V18.923C10.353 19.605 11.092 20.184 11.939 19.791V29H4.699V15.809V15.809ZM26.301 29H19.061V22.123C19.061 21.57 18.588 21.123 18.006 21.123C17.423 21.123 16.95 21.571 16.95 22.123V29H14.051V18.811L15.5 18.138C19.46 19.976 19.257 19.923 19.591 19.923C20.174 19.923 20.647 19.475 20.647 18.923V15.809H26.301V29ZM28.889 13.809H20.647V9.47999H28.889V13.809V13.809Z" fill="#4074F8"/>
</svg>
