<svg width="31" height="31" viewBox="0 0 31 31" fill="none" xmlns="http://www.w3.org/2000/svg">
<path d="M24.521 15.56C23.5578 15.561 22.6343 15.9441 21.9532 16.6252C21.2722 17.3063 20.8891 18.2298 20.888 19.193C20.8891 20.1562 21.2722 21.0796 21.9532 21.7607C22.6343 22.4418 23.5578 22.8249 24.521 22.826H29.667C29.688 22.826 29.708 22.824 29.728 22.823L29.788 22.826C29.9471 22.8261 30.1046 22.7949 30.2516 22.7341C30.3986 22.6733 30.5321 22.584 30.6446 22.4716C30.7571 22.3591 30.8463 22.2256 30.9071 22.0786C30.9679 21.9316 30.9992 21.774 30.999 21.615V12.109C30.9988 11.3429 30.8167 10.5878 30.4678 9.90584C30.1189 9.22383 29.6131 8.63439 28.992 8.18599L24.872 1.42799C24.7889 1.29145 24.6796 1.17272 24.5504 1.07866C24.4212 0.984598 24.2746 0.917086 24.1191 0.879987C23.9637 0.842889 23.8024 0.836956 23.6447 0.862531C23.4869 0.888107 23.3358 0.944663 23.2 1.02897L20.162 2.91298L18.792 0.593977C18.7104 0.456131 18.6022 0.335855 18.4738 0.240064C18.3454 0.144274 18.1993 0.0748655 18.0439 0.0359018C17.8885 -0.00306196 17.727 -0.0108266 17.5685 0.0130441C17.4101 0.0369148 17.258 0.091946 17.121 0.17497L5.45599 7.265H3.633C3.3171 7.26459 3.01384 7.14094 2.78769 6.92039C2.56154 6.69984 2.43033 6.39978 2.422 6.084C2.43033 5.76821 2.56154 5.46812 2.78769 5.24757C3.01384 5.02702 3.3171 4.90341 3.633 4.903H5.87299C6.19416 4.903 6.5022 4.7754 6.72931 4.54829C6.95642 4.32119 7.08401 4.01315 7.08401 3.69197C7.08401 3.37079 6.95642 3.06278 6.72931 2.83568C6.5022 2.60857 6.19416 2.48097 5.87299 2.48097H3.633C2.81621 2.48223 2.02359 2.75816 1.3826 3.26439C0.741608 3.77061 0.289506 4.47773 0.098999 5.27199C0.0338426 5.42328 0.000160038 5.58626 0 5.75099V26.156C0.00158775 27.4402 0.51245 28.6714 1.42053 29.5795C2.32861 30.4875 3.55977 30.9984 4.84399 31H26.157C27.1737 31.001 28.1649 30.6818 28.9899 30.0876C29.8149 29.4935 30.4317 28.6546 30.753 27.69C30.8033 27.5391 30.8234 27.3798 30.8121 27.2211C30.8009 27.0625 30.7584 26.9076 30.6873 26.7653C30.6162 26.6231 30.5177 26.4962 30.3975 26.392C30.2774 26.2878 30.1379 26.2083 29.987 26.158C29.8361 26.1077 29.6768 26.0876 29.5181 26.0989C29.3595 26.1102 29.2046 26.1526 29.0624 26.2237C28.9201 26.2948 28.7932 26.3933 28.689 26.5134C28.5848 26.6336 28.5053 26.7731 28.455 26.924C28.2945 27.4063 27.986 27.8258 27.5735 28.1229C27.161 28.42 26.6653 28.5796 26.157 28.579H4.84399C4.20188 28.5782 3.5863 28.3228 3.13226 27.8687C2.67822 27.4147 2.42279 26.7991 2.422 26.157V9.48097C2.801 9.61497 3.208 9.68898 3.633 9.68898H26.156C26.7981 9.68977 27.4137 9.9452 27.8677 10.3992C28.3218 10.8533 28.5772 11.4689 28.578 12.111V15.562H24.521V15.56ZM23.311 19.193C23.311 18.525 23.854 17.982 24.522 17.982H28.579V20.404H24.522C24.2009 20.4037 23.8931 20.276 23.666 20.049C23.439 19.8219 23.3112 19.5141 23.311 19.193V19.193ZM23.44 3.72999L25.595 7.265H22.735L21.396 4.99797L23.44 3.72999V3.72999ZM17.331 2.88197L18.62 5.06398C18.645 5.12398 18.673 5.182 18.708 5.239C18.734 5.281 18.764 5.32099 18.794 5.35899L19.92 7.265H10.118L17.331 2.88197V2.88197Z" fill="#4074F8"/>
</svg>
