<svg width="88" height="88" viewBox="0 0 88 88" fill="none" xmlns="http://www.w3.org/2000/svg">
<path d="M44 3.3792C21.5653 3.3792 3.3792 21.5653 3.3792 44C3.3792 66.4347 21.5653 84.6208 44 84.6208C66.4347 84.6208 84.6208 66.4347 84.6208 44C84.6208 21.5653 66.4347 3.3792 44 3.3792ZM65.831 59.415C64.0974 60.4991 57.053 60.8221 55.3476 59.583C54.4122 58.9037 53.5568 58.0536 52.7446 57.244C52.1761 56.6782 51.531 56.4036 51.0426 55.7894C50.644 55.2869 50.3703 54.6938 49.9506 54.1974C49.2422 53.365 48.1518 52.6566 47.2894 53.6738C45.9906 55.2042 47.4936 58.2094 45.7618 59.3525C45.181 59.7362 44.5949 59.847 43.8689 59.7925L42.2611 59.8655C41.3169 59.884 39.8209 59.8928 38.7464 59.6992C37.5478 59.4827 36.5578 58.828 35.4737 58.3475C33.4162 57.435 31.4565 56.1915 29.9649 54.4694C25.9054 49.779 20.453 43.3286 18.3348 37.4317C17.8992 36.2199 16.7482 33.8202 17.8394 32.7809C19.323 31.7029 26.605 31.3993 27.7411 33.066C28.2022 33.7436 28.4935 34.7345 28.82 35.5027C29.2266 36.4602 29.4466 37.3622 30.0819 38.2096C30.6442 38.9611 31.0587 39.717 31.4934 40.5407C31.9818 41.4656 32.443 42.3526 33.037 43.2036C33.44 43.7826 34.5057 44.9346 35.1789 45.0199C36.8227 45.2302 36.7206 41.2359 36.5983 40.2609C36.4813 39.321 36.4514 38.324 36.4822 37.371C36.5086 36.5578 36.5816 35.4121 36.1002 34.7486C35.3153 33.6662 33.5667 34.4758 33.4303 33.0211C33.719 32.6084 33.6582 32.2423 35.5863 31.607C37.1052 31.108 38.0864 31.1238 39.0878 31.2039C41.1294 31.3676 43.2942 30.815 45.2654 31.4767C47.1486 32.1112 46.8574 34.7873 46.794 36.3906C46.7086 38.5792 46.8002 40.7158 46.794 42.9378C46.7914 43.949 46.7509 44.9337 47.9846 44.851C49.141 44.7744 49.2589 43.8011 49.8106 42.9986C50.578 41.8792 51.2829 40.744 52.0643 39.629C53.1177 38.1216 53.4362 36.4276 54.428 34.8832C54.7826 34.3314 55.088 33.1558 55.6345 32.7193C56.0481 32.3875 56.8339 32.5609 57.3346 32.5609H58.5253C59.4361 32.5609 60.3654 32.5538 61.3017 32.5864C62.6498 32.633 64.1599 32.3233 65.4966 32.5125C71.265 33.3265 58.2463 45.6579 58.9239 47.8597C59.3921 49.3803 62.3621 51.0796 63.4339 52.3248C64.8569 53.9836 69.2375 57.281 65.831 59.415Z" fill="#4074F8"/>
</svg>
