<svg width="96" height="96" viewBox="0 0 96 96" fill="none" xmlns="http://www.w3.org/2000/svg">
<path d="M92 48V48.13C91.9743 56.8213 89.3752 65.3102 84.5305 72.526C79.6859 79.7418 72.8127 85.3612 64.7781 88.6754C56.7435 91.9895 47.9073 92.8499 39.3843 91.148C30.8613 89.4461 23.0332 85.2582 16.8875 79.1125C10.7418 72.9668 6.5539 65.1387 4.852 56.6157C3.15011 48.0927 4.0105 39.2565 7.32463 31.2219C10.6388 23.1873 16.2582 16.3141 23.474 11.4695C30.6898 6.62484 39.1788 4.02572 47.87 4H48C49.06 4 50.11 4 51.16 4.12C52.8786 4.2403 54.5883 4.46404 56.28 4.79C59.0506 5.31492 61.7634 6.10867 64.38 7.16C69.871 9.3682 74.8617 12.6583 79.0552 16.8347C83.2487 21.011 86.5593 25.9881 88.79 31.47C89.8716 34.1291 90.6857 36.8894 91.22 39.71V39.71C91.5453 41.4186 91.769 43.1449 91.89 44.88C92 45.92 92 47 92 48Z" fill="#4074F8"/>
<path d="M47.87 46.68C46.0346 46.68 44.2404 46.1357 42.7143 45.116C41.1882 44.0963 39.9988 42.647 39.2964 40.9513C38.594 39.2556 38.4102 37.3897 38.7683 35.5896C39.1264 33.7894 40.0102 32.1359 41.308 30.838C42.6059 29.5402 44.2594 28.6564 46.0596 28.2983C47.8597 27.9402 49.7256 28.124 51.4213 28.8264C53.117 29.5288 54.5663 30.7182 55.586 32.2443C56.6057 33.7704 57.15 35.5646 57.15 37.4C57.1474 39.8604 56.1688 42.2193 54.429 43.959C52.6893 45.6988 50.3304 46.6774 47.87 46.68V46.68ZM47.87 32.62C46.9246 32.62 46.0004 32.9003 45.2144 33.4256C44.4283 33.9508 43.8156 34.6973 43.4539 35.5708C43.0921 36.4442 42.9974 37.4053 43.1818 38.3325C43.3663 39.2598 43.8215 40.1115 44.49 40.78C45.1585 41.4485 46.0102 41.9037 46.9375 42.0882C47.8647 42.2726 48.8258 42.1779 49.6992 41.8161C50.5727 41.4544 51.3192 40.8417 51.8444 40.0556C52.3697 39.2696 52.65 38.3454 52.65 37.4C52.6474 36.1331 52.1429 34.9188 51.2471 34.0229C50.3512 33.1271 49.1369 32.6226 47.87 32.62Z" fill="white"/>
<path d="M60.53 49C60.3572 48.7013 60.1271 48.4397 59.853 48.2302C59.5788 48.0207 59.266 47.8674 58.9324 47.7791C58.5988 47.6908 58.2511 47.6693 57.9092 47.7158C57.5673 47.7623 57.2379 47.8759 56.94 48.05C54.2524 49.7783 51.135 50.7205 47.94 50.77C44.7561 50.6686 41.6539 49.738 38.94 48.07C38.3356 47.7796 37.6431 47.7311 37.004 47.9343C36.365 48.1375 35.8278 48.5772 35.5021 49.1634C35.1764 49.7496 35.087 50.438 35.252 51.0879C35.4171 51.7378 35.8241 52.3002 36.39 52.66C37.8798 53.5016 39.4388 54.2142 41.05 54.79C41.7697 55.0385 42.4743 55.329 43.16 55.66L44.02 56.09L37.75 63.67C37.3262 64.1446 37.092 64.7587 37.092 65.395C37.092 66.0313 37.3262 66.6453 37.75 67.12C37.9933 67.3924 38.2934 67.6083 38.629 67.7523C38.9647 67.8963 39.3279 67.965 39.693 67.9536C40.0581 67.9421 40.4163 67.8508 40.7423 67.6861C41.0683 67.5213 41.3542 67.2871 41.58 67L47.87 59.4L54.17 67C54.5857 67.499 55.1793 67.8167 55.8251 67.8858C56.4709 67.9548 57.1182 67.7698 57.63 67.37C58.1534 66.9158 58.4764 66.2735 58.5288 65.5826C58.5812 64.8916 58.3589 64.2079 57.91 63.68L51.59 56L51.86 55.87C52.5067 55.5779 53.1755 55.3371 53.86 55.15C55.8799 54.5291 57.8174 53.6662 59.63 52.58C60.2096 52.2244 60.6289 51.6581 60.8 51C60.8923 50.6657 60.9159 50.3161 60.8695 49.9724C60.8231 49.6287 60.7076 49.2979 60.53 49Z" fill="white"/>
</svg>
